<svg xmlns="http://www.w3.org/2000/svg" viewBox="0 0 2993.27 2779.04"><defs><style>.cls-1,.cls-4{fill:#ff0;}.cls-10,.cls-2,.cls-5,.cls-8{fill:#fff;}.cls-2,.cls-3,.cls-4,.cls-6,.cls-8,.cls-9{stroke:#000;}.cls-2,.cls-3,.cls-4,.cls-6,.cls-7,.cls-8,.cls-9{stroke-miterlimit:10;stroke-width:6px;}.cls-3{fill:#fef7ef;}.cls-6,.cls-7,.cls-9{fill:none;}.cls-7{stroke:#fff;}.cls-8,.cls-9{stroke-linecap:round;}.cls-10,.cls-12{font-size:340px;font-family:Futura-Medium, Futura;font-weight:500;}.cls-11{letter-spacing:-0.02em;}</style></defs><g id="Capa_2" data-name="Capa 2"><g id="Layer_1" data-name="Layer 1"><path class="cls-1" d="M892.24,605.36C508.1,926.6,38,1688.36,479.54,2230c842.77,1033.91,1449.37,185.86,2027,21.41S2685.66,667.81,2102.88,460.29C1583.41,275.32,1105.14,427.32,892.24,605.36Z"/><path d="M1754.4,2292q-16.59,3.33-33.48,6.6l-.49.1c-59.86,11.55-122.44,22.28-187,31.9-134.57,20.08-262.46,33.11-376.09,39.35-33.58,1.85-65.92,3.1-96.82,3.76q-18.35.39-36,.51-17.07.12-33.47,0c-177.85-1.53-293.82-25.69-300.57-70.92-7.18-48.15,111.05-109.6,300.57-165.86q16.38-4.86,33.47-9.67,17.64-5,36-9.87,46.31-12.34,96.82-24.13c100.62-23.46,212.73-44.89,331.42-62.59,80.11-12,157.86-21.4,231.63-28.42l.49,0q16.88-1.59,33.48-3c326.47-28.17,567.53-7,577.34,58.83C2342,2127.12,2097.24,2222.79,1754.4,2292Z"/><path d="M2729,1001.89s-25.18-5.51,2.21-31.39c21.23-20.07,49.79-35.19,57.83-26S2729,1001.89,2729,1001.89Z"/><path class="cls-2" d="M2176.73,949s6.31-7.29,0-31.57-29.63-71.88-20.88-73.82,22.93,38.15,27.41,38.64,4.86-5.67,3.35-19-10.15-52.89-3.24-52,16.4,11.22,21.8,53.53c0,0,4.1,11.87,8.63-8.64s6.91-57.41,13.6-57.2,13.38,14,9.93,33.89-10.58,47.7-3,45.11,26.12-46,31.51-49.86,8.85,20.51-4.53,44.68-18.13,40.37-8.63,37.56,34.53-15.54,39.71-8.63-38.42,27-48.35,41.76-42.95,38.1-42.95,38.1Z"/><path class="cls-2" d="M2788.36,967s-8.05-5.31-8.55-30.39,9.07-77.22.13-76.72-11.76,42.94-15.94,44.62-6.2-4.15-8.37-17.44-4.55-53.66-11-51-12.76,15.25-6.5,57.44c0,0-.74,12.54-10.65-6s-22.19-53.4-28.57-51.38-9.09,17.13-.39,35.31,23.09,43.06,15.12,42.61-37.59-37.19-43.83-39.47-3,22.13,16.45,41.78,28.38,34,18.48,33.82-37.45-5.61-40.57,2.44,44.28,15.56,57.84,27.11,51.67,25.07,51.67,25.07Z"/><polygon class="cls-2" points="2085.3 2564.4 2086.58 2664.64 2141.68 2680.09 2163.22 2562.56 2085.3 2564.4"/><polygon class="cls-2" points="2515.02 2563.68 2535.25 2675.38 2592.43 2682.97 2591.41 2547.95 2515.02 2563.68"/><path class="cls-3" d="M2670.25,1593.16c-6.79,204.19-69,601.28-69,601.28,30.54,236.76,12.19,390.06,12.19,390.06-38.46,41.34-128.26,5.78-128.26,5.78,1.22-26.91-48.61-262.62-61.32-374.41h0c-1.48-13.1-2.37-23.82-2.5-31.44-1.17-72.65-28.88-335.71-28.88-335.71s-103.41,177.87-126,358.26-99.54,413.38-99.54,413.38c-45.24,13.79-99.54-15-99.54-15s13.58-162.85,18.1-305.65,6.79-125.27,20.36-220.47,61.08-523.62,61.08-523.62S2677,1389,2670.25,1593.16Z"/><path d="M2157.51,1625.36s174.54,34.45,326.86,1.48-319.72-71.44-319.72-71.44Z"/><path d="M2423.86,2215.86c-1.48-13.1-2.37-23.82-2.5-31.44-1.17-72.65-28.88-335.71-28.88-335.71s30.06-72.66,41.37-86.86c0,0-26.39,150.33,0,228.82C2460.11,2068.78,2424.23,2214.39,2423.86,2215.86Z"/><path class="cls-2" d="M2476.36,871.32s-44.57,2.68-60,62.66c0,0-2,16.92-19,35.14-6.15,6.61-8,10.44,3.22,18.81,7.57,5.65-13.4,58.31,64.34,66l-10,76.16,117.64,8.29S2540,1065,2553.77,1025.13,2521.6,869.31,2476.36,871.32Z"/><path d="M2474.68,848.19s-32.84,8.72-51.61-8.37c0,0-15.41,62.66,46.25,65.68,0,0,24.13-1.68,21.78,14.41s-15.41,44.57-2,47.25,18.45-18.42,36.53-6c14.91,10.22-13.21,30.81-.81,48.23s37.67,22.14,44,19.46c0,0,0-8.72,5.69-19.1s70.6-63.56-6-147.23C2568.51,862.49,2533.33,831.77,2474.68,848.19Z"/><path d="M2465.71,1051.4s15.46,2.73,24.69-.28-31.19,46.62-31.19,46.62Z"/><path class="cls-4" d="M2910.12,1279.77h0l-.07.07-.06.06-.14.13-.14.13-.27.26c-1.83,1.75-3.67,3.5-5.53,5.23-81.16,76.17-190.44,140.75-191.79,141.55h0c-12.44,76.91-12.82,185.5-12.82,185.5s-235.27,27.9-398.9,5.28-172.68-72.39-172.68-72.39L2176,1391c-196.06-43.73-282.77-211.89-285-257.89S2169.17,944.6,2169.17,944.6s17.72-2.64,37.33,15.46,1.89,49.39,1.89,49.39l-152.71,132.72s47.89,12.06,150.44-31.38,120.66-40.26,215.24-13,137.93,3.41,137.93,3.41,28.39-13.27,69.67-19.5,214.91,72.39,231.88,65.61c7.62-3-19.89-34.27-52.51-67.74h0c-40-41.06-87.73-85.51-87.73-85.51,49.77-9.62,68.44-49.53,68.44-49.53h0c2.11,1,137.66,63.59,194.52,175.82C3006.85,1166.27,2966.38,1225.56,2910.12,1279.77Z"/><path d="M2175.87,1388.56s35.53,9.24,60.41,6.22-19.32,25-31.41,30.42c-15.24,6.8-22,17.39-26.9,38.2-3.23,13.71-32.47,25.17-32.47,25.17Z"/><path d="M2876.41,1309.78c-89.85,72.88-162.91,116.19-164.3,117l-2.27-1.15,15.26-109.13c2.36-20,4,7.42,30.55,34.35C2779.25,1374.77,2876.41,1309.78,2876.41,1309.78Z"/><path d="M2052.1,1143.49s-31.67-8.67-49.2-18.85c0,0-9.43-11.88,26.39-10.18s106.2-41.65,106.2-41.65Z"/><path d="M2854.12,1150c7.62-3-13.17-37-45.79-70.44.76.13,25.39,4.52,38.75,23.44,13.57,19.23,40.34,26.77,43.73,39.21S2854.12,1150,2854.12,1150Z"/><path class="cls-5" d="M2912.16,1275.55s-9.64,8.06-11.5,9.8c0,0,60.29-74,65.81-133.12,5.51-58.85-176.64-200.2-178.11-201.31,0,0,1.83-3,1.83-3-1.24-2,135,60.35,191.87,172.58C3005.35,1166.46,2962.45,1222.1,2912.16,1275.55Z"/><path d="M2699.28,1612.71s3.45,14-32.21,25.3l1.53-22.11Z"/><path d="M2156.18,2673.32s-53.31-4.57-74.3-28.45c0,0-96.39,70.7-119.32,82.74,0,0-27.56,18.28-15.22,47.27h0c39.56,2.22,208.16.57,208.16.57S2154.6,2694.62,2156.18,2673.32Z"/><path class="cls-6" d="M2081.88,2644.87s9.55-74.51-15.52-85.47S2046.79,2587.75,2081.88,2644.87Z"/><path class="cls-6" d="M2081.88,2644.87s-46.12-44-60.2-7.83S2081.88,2644.87,2081.88,2644.87Z"/><line class="cls-7" x1="1947.79" y1="2759.01" x2="2152.56" y2="2759.01"/><path d="M2602.61,2673.32s-53.31-4.57-74.3-28.45c0,0-96.39,70.7-119.32,82.74,0,0-27.56,18.28-15.21,47.27h0c39.55,2.22,208.15.57,208.15.57S2601,2694.62,2602.61,2673.32Z"/><path class="cls-6" d="M2528.31,2644.87s9.55-74.51-15.52-85.47S2493.22,2587.75,2528.31,2644.87Z"/><path class="cls-6" d="M2528.31,2644.87s-46.12-44-60.19-7.83S2528.31,2644.87,2528.31,2644.87Z"/><line class="cls-7" x1="2394.22" y1="2759.01" x2="2598.99" y2="2759.01"/><path d="M2391.78,716.4a51.13,51.13,0,0,1,2,10.21,13.63,13.63,0,0,1-1.29,7.29,12.83,12.83,0,0,1-5,5.16,37.08,37.08,0,0,1-9.05,3.66,38.78,38.78,0,0,1-9.71,1.67,12.31,12.31,0,0,1-6.94-1.79,14.22,14.22,0,0,1-4.84-5.55,51.75,51.75,0,0,1-3.65-9.74,54.31,54.31,0,0,1-2.06-10.39,11.76,11.76,0,0,1,6.21-12.25,38.92,38.92,0,0,1,9.14-3.68,37.49,37.49,0,0,1,9.62-1.64,13.67,13.67,0,0,1,6.88,1.6,12.64,12.64,0,0,1,4.93,5.52A54.6,54.6,0,0,1,2391.78,716.4Zm-19.65-47.62a5.24,5.24,0,0,1,.09,2.74,5,5,0,0,1-1.77,2.48,16.78,16.78,0,0,1-3.9,2.29,48.68,48.68,0,0,1-6.3,2.19,47.63,47.63,0,0,1-6.51,1.45,16.64,16.64,0,0,1-4.52.1,5,5,0,0,1-2.81-1.18,5.2,5.2,0,0,1-1.37-2.38l-52.69-173.73a8,8,0,0,1-.54-4,6.22,6.22,0,0,1,1.87-3.5,15,15,0,0,1,4.68-3,62,62,0,0,1,8.2-2.83,52.24,52.24,0,0,1,8.3-1.76,16.37,16.37,0,0,1,5.59.19,6.4,6.4,0,0,1,3.41,1.9,9.19,9.19,0,0,1,1.8,3.55Z"/><path class="cls-3" d="M1754.4,590.29V2292q-16.59,3.33-33.48,6.6l-.49.1c-59.86,11.55-122.44,22.28-187,31.9-134.57,20.08-262.46,33.11-376.09,39.35-33.58,1.85-65.92,3.1-96.82,3.76q-18.35.39-36,.51V731Z"/><path class="cls-4" d="M1720.43,637.7v1661c-59.86,11.55-122.44,22.28-187,31.9-134.57,20.08-262.46,33.11-376.09,39.35-33.58,1.85-65.92,3.1-96.82,3.76V767.52L1620,657.46Z"/><path class="cls-3" d="M1720.92,632.27V2298.58l-.49.1c-59.86,11.55-122.44,22.28-187,31.9-134.57,20.08-262.46,33.11-376.09,39.35V773L1620,657.46Z"/><polygon class="cls-3" points="1024.56 732.4 1754.39 591.71 1720.92 565.41 991.09 706.11 1024.56 732.4"/><path class="cls-3" d="M1024.56,732.41V2374.2q-17.07.12-33.47,0V706.11Z"/><rect x="772.27" y="1084.06" width="827.23" height="512.09" transform="translate(251.87 -186.27) rotate(10.04)"/><polygon class="cls-3" points="797.41 976.71 823.26 1015.85 733.96 1520.1 708.1 1480.96 797.41 976.71"/><polygon class="cls-3" points="797.41 976.71 823.26 1015.85 1637.81 1160.11 1611.96 1120.97 797.41 976.71"/><polygon points="797.41 976.71 1331.14 653.1 1611.96 1120.97 1637.81 1160.11 1328.68 687.57 823.26 1015.85 797.41 976.71"/><line class="cls-8" x1="1636.73" y1="2776.04" x2="2341.74" y2="2776.04"/><line class="cls-8" x1="2377.44" y1="2776.04" x2="2649.74" y2="2776.04"/><line class="cls-8" x1="2682.65" y1="2776.04" x2="2846.85" y2="2776.04"/><path class="cls-9" d="M708.1,673s-479.37,551.87-474,1060.67,283.79,597,283.79,597"/><text/><text class="cls-10" transform="matrix(0.99, 0.16, -0.16, 0.99, 846.56, 1406.3)">4<tspan class="cls-11" x="209.84" y="0">0</tspan><tspan x="413.54" y="0">4</tspan></text><text class="cls-12" transform="translate(277.41 1166.97) rotate(-66.77)">¿</text><text class="cls-12" transform="translate(339.03 1019.21) rotate(-60.35)">Y</text><text class="cls-12" transform="translate(438.72 848.46) rotate(-54.27)"> </text><text class="cls-12" transform="translate(497.7 766.78) rotate(-50.24)">l</text><text class="cls-12" transform="translate(544.78 704.17) rotate(-43.73)">o</text><text class="cls-12" transform="matrix(0.81, -0.58, 0.58, 0.81, 687.67, 569.86)">s</text><text class="cls-12" transform="matrix(0.87, -0.5, 0.5, 0.87, 795.23, 493.35)"> </text><text class="cls-12" transform="translate(878.93 442) rotate(-23.07)">e</text><text class="cls-12" transform="translate(1039.49 373.42) rotate(-15.46)">v</text><text class="cls-12" transform="translate(1191.53 330.22) rotate(-8.52)">e</text><text class="cls-12" transform="matrix(1, -0.03, 0.03, 1, 1370.83, 303.25)">n</text><text class="cls-12" transform="translate(1552.55 299.16) rotate(2.64)">t</text><text class="cls-12" transform="translate(1643.41 301.21) rotate(7.05)">o</text><text class="cls-12" transform="translate(1841.41 326.94) rotate(11.61)">s</text><text class="cls-12" transform="translate(1972.87 353.39) rotate(15.35)">?</text></g></g></svg>