<svg xmlns="http://www.w3.org/2000/svg" viewBox="0 0 3147.44 2798.81"><defs><style>.cls-1{fill:#ff0;}.cls-2{fill:#c6c105;}.cls-3,.cls-4{fill:#fff;}.cls-3,.cls-4,.cls-5,.cls-6,.cls-7{stroke:#000;}.cls-3,.cls-4,.cls-5,.cls-6,.cls-7,.cls-8{stroke-miterlimit:10;stroke-width:6px;}.cls-4,.cls-5{stroke-linecap:round;}.cls-5,.cls-8{fill:none;}.cls-6{fill:#fcfbf0;}.cls-7{fill:#fef7ef;}.cls-8{stroke:#ff0;}.cls-9{font-size:340px;font-family:Futura-Medium, Futura;font-weight:500;}</style></defs><g id="Capa_2" data-name="Capa 2"><g id="Layer_1" data-name="Layer 1"><path class="cls-1" d="M1124.45,713.2c-117.93,64-1264.63,749.6-289,1707.25s1289.85-182.11,1876.15-369.54,252-1332.67-351.78-1526.1C1821.61,352.41,1374.43,577.52,1124.45,713.2Z"/><path class="cls-2" d="M675.21,1919.54c71.31,32.71,258.48,129.38,313,264.81a9.44,9.44,0,0,0,3.83,4.54l38.64,23.41a9.28,9.28,0,0,0,7.77.88c22.21-7.41,143.55-29.78,426.77,223.51a36.73,36.73,0,0,0,40.94,5.48l479.65-240.36a9.33,9.33,0,0,0,1.18-16l-209.66-147.16a9.26,9.26,0,0,0-4.09-1.61L690.1,1888a9.4,9.4,0,0,0-5.42.89l-9.87,4.9A14.29,14.29,0,0,0,675.21,1919.54Z"/><ellipse cx="2152.79" cy="1870.34" rx="994.65" ry="130.33"/><path class="cls-3" d="M1436.55,1237.43s59-56.25,77.51-66.31,69.26-41.77,76.63-50.61,16.51,14.33-2.39,29.87c-13.31,10.95-39.13,35.54-52.57,42.63l-8.16-6.18s11,3.49,27.8,34.59S1481,1295.2,1481,1295.2Z"/><path d="M1612,1049.86s-11.48,37.15,5,100.06c0,0-64.83-78.72-4.43-122.39Z"/><path class="cls-3" d="M1629.15,1033.62s-32.81,16.94-26.25,61.77,23,69.16,22.69,90.21,36.49,112.76,102.51,98.68l24.19-6.42c3.56,9,12.43,47.72,10.25,58.91l-55.17,24.59L1776,1576.29s1.55-51.18,82.74-104.69,150.49-150,150.49-150l-60.36-5.49s-72.3-119.41-79.68-153.85c0,0,29.52-68.89-30.75-86.11S1691.13,1002.18,1629.15,1033.62Z"/><path class="cls-4" d="M1667,1141.37s-1,21.1-5.71,30.58-24.28,18-17.38,30.33,52.61-4,52.61-4"/><path d="M1612,1049.86s24.44-16,38,6.17,68.92,40.36,119.11,27.06,28,20,47,28.43c12.3,5.47,16.54-8.75,36.22-16.13s24.6,29.12,18,38.14-12.19,35.43,5,54a580.29,580.29,0,0,0,10.36-63.52s22-83-8.69-126.22c-45.85-64.67-123.28-58.22-180.48-50.84S1594.15,1007,1612,1049.86Z"/><path d="M1751.5,1275.24s18.22-3.94,75-38.38c0,0,8.66,3.55-13.74,29.52-24.87,28.83-51,53-51,53S1757.65,1289.59,1751.5,1275.24Z"/><ellipse cx="1634.02" cy="1149.92" rx="6.24" ry="7.16" transform="translate(-181.96 316.53) rotate(-10.48)"/><ellipse cx="1715.42" cy="1149.92" rx="7.16" ry="6.24" transform="translate(425.93 2763.05) rotate(-85.2)"/><path class="cls-5" d="M1713.68,1098.15s6.58,14.84,27.12,13.37"/><path class="cls-5" d="M1611.53,1128.87s16.17,1.44,24.85-17.24"/><path d="M1678,1231.51c6.51-5.43,25.68-18.93,48-11.55a13,13,0,0,1,5.81,3.78,8.28,8.28,0,0,1,2.12,7.74c-2.4,8.81-63.61,26.23-59.92,6.56A11.23,11.23,0,0,1,1678,1231.51Z"/><path class="cls-6" d="M1978.06,1312.65s-31.06,89.87-154.54,111.82c0,0-23.32,82.31-39.78,105,0,0,7.54-104.27,0-122.1,0,0-37.27-30.41-57.85-62.65,0,0-230.26,65.39-300.91,130.56,0,0,67-142.92,71.09-169.61,0,0-6.61-57.28-63.55-70,0,0-325.15,177.92-333.38,422.13s371.11,67.22,371.11,67.22-26.75,195.5-25.38,250.38c1.49,59.54,495.27,72,495.27,72s.91,14.18,2.29,19.21c0,0,368.13,211.28,547.4,24.7S2349.83,1296.88,1978.06,1312.65Z"/><path d="M2086.06,1687.39s128.47,252,167.79,298.65c0,0-86-18.29-177.2-29.26,0,0,98.09-2.06,91.23-44.59C2161.14,1870.42,2035.79,1637.51,2086.06,1687.39Z"/><path class="cls-3" d="M1969.64,1973.24s-56.25-19.89-83.69-19.21-62.43,19.21-62.43,19.21l88.44,72,28.18,2.07S1945.63,1997.93,1969.64,1973.24Z"/><path d="M1473.48,1723.42s7.37-46.37,13.16-87.7c.69-5-9.76-10.49-17.85,2.72-12.51,20.43-24.41,50.29-47.24,69.33-21.26,17.73-56.39,58.38-108,66.69C1313.55,1774.46,1377,1773.27,1473.48,1723.42Z"/><path d="M1422.46,1474.77s-32.92,76.83-64.94,118c0,0-16.46,35.67,72.26-64s118.68-122.17,118.68-122.17S1492.66,1422.18,1422.46,1474.77Z"/><path class="cls-7" d="M1969.64,1973.24s15.09-15.78,32.24-23.32c0,0,158.91,13.26,252,36.12"/><circle class="cls-1" cx="2610.98" cy="2285.05" r="115.56"/><circle class="cls-8" cx="2408.69" cy="2421.73" r="52.96"/><path class="cls-5" d="M1400.11,510.76c1.78,17.82,1030.22-441,1486.66,379.6"/><path class="cls-5" d="M2916.66,943.66s405.47,861.19-95.74,1103.66"/><circle class="cls-1" cx="1855.54" cy="1457.39" r="15.09"/><circle class="cls-1" cx="1840.44" cy="1508.31" r="15.09"/><circle class="cls-1" cx="1815.41" cy="1552.6" r="15.09"/><path class="cls-7" d="M672.47,1800.38s11.19,58.6,3,99.76c0,0,261.37,86.82,343.68,287.12l5.1-42.88c10.65-89.74-15.38-180.31-73.36-249.63C896.82,1830.15,809.86,1777.37,672.47,1800.38Z"/><path class="cls-3" d="M672.47,1800.38l415.7-171.5s253.8,56.25,333.38,286.74l-402.44,271.64S1108.75,1856.63,672.47,1800.38Z"/><path class="cls-3" d="M1021.85,2173.59s39.34-179.31-2.74-256.14c0,0,25.16,23.55,36.82,52.36s13,24.24,13,24.24.69-35.22,9.6-45c0,0,14.87,12.35,23.78,5.49s20.35-21.49,20.35-21.49,3.43,35.67,16.24,24.46,9.6-20.35,9.6-20.35,15.09,48.71,24,31.1,9.38-30,9.38-30,10.74,18.52,13.26,9.83,19.66,10.29,31.55-6.86,13.49-32.24,13.49-32.24,1.6-17.46,28-4.65,20.88,11.58,25.91-4,7.77-14.79,7.77-14.79,5.49,15.7,10.06,6.55,16.16,10.22,44.82-16.61c0,0,9.91-9.76,14.33-9.76,0,0-7.93,10.67,0,12.35s26.07-2,32.62-13.26,7.44-47.8,7.44-47.8,21.81,64.12,10.08,97.65Z"/><path class="cls-7" d="M1912,2045.25s35.24,94,57.68,135.15L1483.74,2415l-20.12-170.12Z"/><path class="cls-7" d="M1019.11,2187.26a166.51,166.51,0,0,1,144.1-145.44c46.78-6,94.18-7.44,119.31,5.5,60.37,31.1,181.1,197.56,181.1,197.56L1483.74,2415s-312.8-290.85-464.63-227.74Z"/><path class="cls-3" d="M1019.11,2187.26s14.51-81.17,79.87-119.36c69.92-40.84,196.13-32.5,364.64,177L1912,2045.25s-186.86-248.69-490.41-129.63l-283.32,122.83c-38.8,16.82-67,43.92-92.29,77.78,0,0-16.94,27.87-21,42.07Z"/><path d="M1685.33,845l-.14-5.29c-.68-10.8,3.57-22.79,14.3-34.24,9.67-10.5,15.13-18.16,15.58-27.28.52-10.34-5.63-17.56-18.39-18.39-7.3-.36-15.53,1.66-20.79,5.26l-4.23-13c7.14-4.52,18.65-7.2,29.4-6.67,23.31,1.16,33.14,16.08,32.37,31.49-.68,13.78-8.89,23.54-19.18,34.41-9.45,10.1-13.15,19.06-13,29.43l0,5.08Zm5.26,41.52c-6.9-.34-11.49-6.06-11.14-13.16.38-7.49,5.71-12.51,12.8-12.16s11.7,5.87,11.33,13.36c-.35,7.1-5.29,12.34-12.79,12Z"/><path d="M1514.43,930l-3.21-4.22c-6.86-8.36-10.42-20.57-8.41-36.14,1.7-14.17,1.66-23.57-3.31-31.24-5.63-8.69-14.83-11-25.67-4.16-6.13,4-11.63,10.42-13.79,16.42l-11-8.08c3.15-7.85,10.92-16.75,20-22.6,19.59-12.69,36.29-6.33,44.67,6.62,7.51,11.58,6.55,24.29,4.56,39.13-1.76,13.72.47,23.15,6.62,31.51l2.92,4.15Zm28.54,30.6c-5.8,3.76-12.86,1.81-16.73-4.16-4.07-6.3-2.69-13.49,3.28-17.35s12.92-2.08,17,4.22c3.86,6,2.92,13.1-3.38,17.19Z"/><text class="cls-9" transform="translate(284.25 1596.28) rotate(-76.79)">A</text><text class="cls-9" transform="translate(347.34 1365.68) rotate(-64.77)">l</text><text class="cls-9" transform="matrix(0.54, -0.84, 0.84, 0.54, 377.05, 1293.9)">g</text><text class="cls-9" transform="matrix(0.64, -0.77, 0.77, 0.64, 482.14, 1128.53)">o</text><text class="cls-9" transform="matrix(0.7, -0.71, 0.71, 0.7, 611.77, 976.78)"> </text><text class="cls-9" transform="matrix(0.75, -0.66, 0.66, 0.75, 681.6, 903.81)">n</text><text class="cls-9" transform="translate(817.06 782.91) rotate(-36.8)">o</text><text class="cls-9" transform="matrix(0.84, -0.55, 0.55, 0.84, 978.52, 663.98)"> </text><text class="cls-9" transform="translate(1062.66 607.4) rotate(-29.64)">e</text><text class="cls-9" transform="translate(1222.86 517.05) rotate(-25.62)">s</text><text class="cls-9" transform="translate(1344.69 459.15) rotate(-22.65)">t</text><text class="cls-9" transform="translate(1428.56 421.87) rotate(-18.51)">รก</text><text class="cls-9" transform="translate(1617.91 360.28) rotate(-13.93)"> </text><text class="cls-9" transform="translate(1714.28 333.82) rotate(-8.91)">b</text><text class="cls-9" transform="translate(1910.74 305.37) rotate(-3.78)">i</text><text class="cls-9" transform="translate(1989.76 297.43) rotate(1.49)">e</text><text class="cls-9" transform="translate(2169.91 301.44) rotate(9.37)">n</text></g></g></svg>